# xmcd CD database file
#
# Track frame offsets:
#	150
#	17634
#	33331
#	46383
#	62686
#	82355
#	100495
#	121293
#	137528
#	153815
#	164855
#	185670
#	204664
#	224277
#	237794
#
# Disc length: 3441 seconds
#
# Revision: 8
# Processed by: cddbd v1.4b42PL0 Copyright (c) Steve Scherf et al.
# Submitted via: CDex 1.40Beta6
#
DISCID=d60d6f0f
DTITLE=Garotos de Ouro - Obrigado Patrão Velho
DYEAR=1999
DGENRE=Country
TTITLE0=Chora No Ombro Do Véio
TTITLE1=Festa Campeira
TTITLE2=Obrigado Patrão Velho
TTITLE3=Gaiteiro De Barraca
TTITLE4=Eu Reconheço Que Sou Grosso
TTITLE5=A. M. M. M.
TTITLE6=Linda Flor
TTITLE7=O Menino Da Porteira
TTITLE8=Morena De Goiás
TTITLE9=Coisa Boa É Mulher
TTITLE10=Coração Gaudério
TTITLE11=Coração Sonhador
TTITLE12=No Claear Do Dia
TTITLE13=Peão Andejo
TTITLE14=Se Preparando Pra Semana Farroupilha
EXTD=
EXTT0=
EXTT1=
EXTT2=
EXTT3=
EXTT4=
EXTT5=
EXTT6=
EXTT7=
EXTT8=
EXTT9=
EXTT10=
EXTT11=
EXTT12=
EXTT13=
EXTT14=
PLAYORDER=
